# xmcd
#
# Track frame offsets:
# 150
# 13917
# 28997
# 44750
# 59074
# 72528
# 86900
# 101465
# 117545
# 130538
# 146034
# 160449
# 175364
# 189023
# 204574
# 220192
# 236461
# 253110
# 268053
# 281186
# 298152
# 312618
#
# Disc length: 4405 seconds
#
#
# Revision: 0
# Processed by: cddbd v1.5.2PL0 Copyright (c) Steve Scherf et al.
# Submitted via: FreeRIP 2.945 
#
DISCID=6e113316
DTITLE=Fergus-J1998 - 1000White-Women08
DYEAR=1998
DGENRE=Native American
TTITLE0=0801
TTITLE1=0802
TTITLE2=0803
TTITLE3=0804
TTITLE4=0805
TTITLE5=0806
TTITLE6=0807
TTITLE7=0808
TTITLE8=0809
TTITLE9=0810
TTITLE10=0811
TTITLE11=0812
TTITLE12=0813
TTITLE13=0814
TTITLE14=0815
TTITLE15=0816
TTITLE16=0817
TTITLE17=0818
TTITLE18=0819
TTITLE19=0820
TTITLE20=0821
TTITLE21=0822
EXTD=One Thousand White Women\nby Jim Fergus - read by Laura Hicks\nFiction BBC Audio Books America
EXTT0=
EXTT1=
EXTT2=
EXTT3=
EXTT4=
EXTT5=
EXTT6=
EXTT7=
EXTT8=
EXTT9=
EXTT10=
EXTT11=
EXTT12=
EXTT13=
EXTT14=
EXTT15=
EXTT16=
EXTT17=
EXTT18=
EXTT19=
EXTT20=
EXTT21=
PLAYORDER=
